<?xml version="1.0" encoding="UTF-8" standalone="no"?>
<!-- Created with Inkscape (http://www.inkscape.org/) -->

<svg
   xmlns:dc="http://purl.org/dc/elements/1.1/"
   xmlns:cc="http://creativecommons.org/ns#"
   xmlns:rdf="http://www.w3.org/1999/02/22-rdf-syntax-ns#"
   xmlns:svg="http://www.w3.org/2000/svg"
   xmlns="http://www.w3.org/2000/svg"
   xmlns:sodipodi="http://sodipodi.sourceforge.net/DTD/sodipodi-0.dtd"
   xmlns:inkscape="http://www.inkscape.org/namespaces/inkscape"
   width="128"
   height="128"
   viewBox="0 0 33.866666 33.866668"
   version="1.1"
   id="svg8"
   inkscape:version="0.92.3 (2405546, 2018-03-11)"
   sodipodi:docname="drawing.svg"
   inkscape:export-filename="/home/diego/Projects/CoreDaemon/CoreDaemon/graphics/damien.png"
   inkscape:export-xdpi="96"
   inkscape:export-ydpi="96">
  <defs
     id="defs2" />
  <sodipodi:namedview
     id="base"
     pagecolor="#ffffff"
     bordercolor="#666666"
     borderopacity="1.0"
     inkscape:pageopacity="0.0"
     inkscape:pageshadow="2"
     inkscape:zoom="1.979899"
     inkscape:cx="88.761857"
     inkscape:cy="52.955848"
     inkscape:document-units="mm"
     inkscape:current-layer="layer1"
     showgrid="false"
     units="px"
     inkscape:window-width="1440"
     inkscape:window-height="812"
     inkscape:window-x="0"
     inkscape:window-y="31"
     inkscape:window-maximized="1" />
  <metadata
     id="metadata5">
    <rdf:RDF>
      <cc:Work
         rdf:about="">
        <dc:format>image/svg+xml</dc:format>
        <dc:type
           rdf:resource="http://purl.org/dc/dcmitype/StillImage" />
        <dc:title></dc:title>
      </cc:Work>
    </rdf:RDF>
  </metadata>
  <g
     inkscape:label="Layer 1"
     inkscape:groupmode="layer"
     id="layer1"
     transform="translate(0,-263.13332)">
    <g
       id="g917"
       transform="matrix(1.0377474,0,0,1.0377474,0.63853636,-10.324045)">
      <rect
         ry="37.632454"
         rx="37.632454"
         y="263.89685"
         x="-0.22898716"
         height="31.862143"
         width="31.862143"
         id="rect892"
         style="opacity:1;fill:#5b7090;fill-opacity:1;stroke:none;stroke-width:0.78771311;stroke-linecap:round;stroke-linejoin:miter;stroke-miterlimit:4;stroke-dasharray:none;stroke-dashoffset:0;stroke-opacity:1;paint-order:markers fill stroke" />
      <g
         transform="matrix(0.05652323,0,0,0.05652323,24.360522,258.08705)"
         id="g880">
        <path
           sodipodi:nodetypes="ccc"
           inkscape:connector-curvature="0"
           id="path890"
           d="M -153.23415,279.72592 C 57.827601,396.57551 48.591719,523.09926 -151.8091,525.94115 -432.63698,494.63728 -337.09921,369.54267 -153.23415,279.72592 Z"
           style="fill:#f9fbfb;stroke-width:0.26458335" />
        <path
           sodipodi:nodetypes="cccssscccscscssccscscscscccsscccsccccsccsccccccccsccssccccccccssscssscsccsscsscccccscccc"
           inkscape:connector-curvature="0"
           id="path888"
           d="m -405.27994,383.59531 32.24529,-111.10822 220.86929,-28.03125 c 19.14205,-1.84156 37.30113,-1.14486 53.835486,-0.85604 121.828934,2.12806 174.792093,54.84739 187.199259,128.99922 8.937396,53.41464 -7.428246,134.28624 -20.628683,149.55241 0,0 -135.650999,10.11769 -220.049802,3.78972 h -212.43456 c -39.04709,-40.56907 -40.82057,-91.24623 -41.03628,-142.34584 z m 338.534384,106.99338 c 3.357086,-0.44902 6.70343,-1.29372 10.880196,-2.74641 6.60154,-2.29605 11.428439,-5.08045 17.960737,-10.36067 6.372808,-5.1513 12.83433,-13.99241 16.406655,-22.4488 0.842539,-1.99442 3.155156,-9.18924 3.699457,-11.50937 2.224802,-9.48341 2.125107,-23.66421 -0.243655,-34.66042 -1.33948,-6.21811 -4.733343,-15.92408 -7.49382,-21.43125 -7.002675,-13.97052 -18.165446,-26.8307 -30.361653,-34.97851 -2.740052,-1.83051 -8.52305,-5.12159 -10.847917,-6.17349 -3.551873,-1.60707 -9.590987,-3.76132 -13.023321,-4.64561 -4.054184,-1.04452 -12.605518,-2.22427 -16.122439,-2.22427 -3.51499,0 -9.983154,0.7597 -13.771774,1.61752 -6.61424,1.49761 -11.20029,3.35209 -13.30643,5.38081 -1.39181,1.34065 -2.37199,1.87686 -4.14017,2.26488 -3.79643,0.83313 -12.62197,9.12804 -17.61421,16.55516 -2.87193,4.27267 -6.60425,11.96488 -7.60834,15.68056 -0.61201,2.2648 -0.77127,3.30444 -0.6485,4.23334 0.12037,0.91067 0.0205,1.60522 -0.38362,2.66744 -0.54377,1.42935 -0.67093,2.35707 -1.51855,11.07925 -0.54718,5.63058 -0.38752,9.77408 0.54745,14.2075 0.69243,3.28334 0.67644,4.77063 -0.0571,5.30901 -0.33532,0.24611 -0.33231,0.58209 0.0238,2.64583 0.22433,1.30015 0.94576,4.20938 1.60317,6.46496 1.64262,5.63587 1.80531,6.11878 3.07511,9.12812 0.61403,1.45521 1.33089,3.18162 1.59302,3.83646 0.48521,1.21214 0.70204,1.6279 3.51867,6.74687 4.58688,8.33626 10.87547,16.31674 17.95683,22.788 4.09012,3.73775 4.32507,3.92497 9.48712,7.56045 6.20395,4.36929 10.79576,6.7254 18.3747,9.42827 5.645865,2.01348 9.268831,2.93384 14.155209,3.59592 1.67349,0.22674 3.399896,0.46214 3.836458,0.52309 1.544109,0.21559 11.15277,-0.15075 14.022917,-0.53464 z m -52.976334,-58.98183 c -5.89222,-1.587 -9.90049,-6.76165 -9.93182,-12.82197 -0.0251,-4.85925 2.19768,-8.92821 6.28732,-11.50912 2.21364,-1.39699 3.48996,-1.78199 6.36868,-1.92105 4.30832,-0.20813 7.21934,0.89924 10.18961,3.87618 5.18975,5.20137 5.29015,13.24431 0.23286,18.65058 -2.58083,2.75891 -5.88106,4.14911 -9.76914,4.11517 -1.0972,-0.01 -2.6171,-0.18498 -3.37751,-0.38979 z m -108.81638,55.44879 c 5.02526,-0.64447 7.22843,-1.14535 13.07084,-2.97159 4.71134,-1.47267 11.90092,-4.63527 15.10729,-6.64546 6.66084,-4.17595 8.50275,-5.43423 11.37708,-7.77213 7.71018,-6.27125 15.30653,-14.79224 20.326,-22.8001 2.75265,-4.39147 6.94156,-12.64951 7.97636,-15.72465 0.35272,-1.04818 1.04996,-3.03688 1.54943,-4.41932 0.49946,-1.38245 1.05328,-3.40652 1.23071,-4.49792 0.17743,-1.09141 0.62016,-3.27122 0.98385,-4.84403 l 0.66124,-2.85965 -0.60703,-3.09348 c -0.83358,-4.24796 -0.79297,-8.31147 0.15849,-15.85914 l 0.74206,-5.88651 -0.6863,-3.5062 c -1.76997,-9.04249 -6.34769,-19.01097 -12.05928,-26.26037 -6.0682,-7.70202 -15.35645,-14.44775 -24.50886,-17.79992 -6.79115,-2.48733 -13.88976,-3.76689 -20.85045,-3.75839 -12.26704,0.015 -22.67484,2.50196 -33.81493,8.08025 -6.59665,3.30321 -10.0706,5.57758 -16.37525,10.72076 -13.05543,10.65029 -23.45348,25.79714 -29.31927,42.70939 -2.48073,7.15244 -3.79747,15.88529 -3.78692,25.11544 0.01,8.40926 0.4433,11.64487 2.60919,19.46685 1.84092,6.64836 4.53877,12.56028 7.96869,17.46215 0.96718,1.38226 2.11488,3.04913 2.55043,3.70417 0.43555,0.65503 2.22135,2.66264 3.96845,4.46135 4.89376,5.03832 10.15415,8.83781 16.38283,11.83303 5.47427,2.63244 11.81262,4.54372 17.03599,5.13706 1.41166,0.16035 3.40009,0.39767 4.41874,0.52738 2.7368,0.34849 8.93125,0.11705 13.89062,-0.51897 z m 24.05375,-57.01129 c -3.19221,-0.8806 -6.81997,-3.8179 -8.28251,-6.70613 -2.00149,-3.95254 -1.98504,-8.79709 0.0428,-12.60332 0.99832,-1.87384 3.84556,-4.66717 5.65188,-5.54487 5.49153,-2.66835 11.38278,-1.73787 15.60476,2.46466 2.72577,2.71322 3.93976,5.61058 3.93976,9.40284 0,1.17994 -0.17666,2.82357 -0.39257,3.65252 -1.09475,4.20305 -4.55836,7.83126 -8.81723,9.23627 -1.72316,0.56848 -5.85209,0.62073 -7.74687,0.098 z"
           style="fill:#e1b996;stroke-width:0.26458335" />
        <path
           sodipodi:nodetypes="ccccccccccsssccssscccsscccscccscccccsccccsssccccsssccscccssssssccscsscccccccccccscccccccscccsccsccscscccsssscsssssssccssccccccsscsccsscscccccsccscsccsccscscscccccscccsccccccccccccccccccccccscsccccccccssccccscsccccssccccsccccccccccccccccccccccccssccsccsscsccccccccscccccccccccccccccscccccccccccccccccccccccccsscsccscccccsccccssccccccccsccccscccccscc"
           inkscape:connector-curvature="0"
           id="path884"
           d="m -405.24155,458.55594 c 0.0241,-35.63448 0.12498,-55.45488 0.27051,-53.1325 1.39305,22.22984 6.01198,44.79418 13.48592,65.88125 1.75362,4.94771 3.64154,10.12693 4.19537,11.50937 1.93732,4.83587 8.3975,18.42346 10.62972,22.3573 1.23861,2.18281 3.77058,6.64686 5.6266,9.92007 1.85603,3.27324 4.14301,7.05348 5.08218,8.40052 l 1.70759,2.4492 c -12.41637,-20.76979 -41.61656,-33.07334 -40.99789,-67.38521 z m 453.833269,64.54332 c 1.057699,-1.56567 5.149851,-8.75575 9.093624,-15.97798 8.413221,-15.4071 10.774204,-20.56243 15.776179,-34.44784 6.558438,-18.20612 11.022145,-37.64737 13.010674,-56.66667 1.297887,-12.41375 1.806866,-23.86672 1.158266,-26.06321 -0.382482,-1.29533 -0.960041,-5.48846 -1.424861,-10.34509 -0.67392,-7.04108 -1.786678,-10.55524 -3.342296,-10.55524 -1.79324,0 -4.007458,4.79352 -7.394125,16.00729 -1.193139,3.95067 -3.229557,13.49909 -4.091067,19.18229 -1.77718,11.72376 -1.854174,13.42887 -1.863487,41.275 -0.0082,24.26531 -0.02381,25.04543 -0.533241,26.4367 -0.298344,0.81492 -0.826373,1.6557 -1.223539,1.94829 -1.259391,0.92782 -2.283725,0.32442 -6.136032,-3.61453 -5.6066,-5.7327 -12.480872,-14.75837 -16.681159,-21.90176 -5.954237,-10.12633 -8.709132,-21.361 -8.26352,-33.69921 0.207962,-5.75791 1.037669,-17.27514 1.872535,-25.99298 2.114842,-22.08316 1.319557,-35.86196 -2.508012,-43.4536 -2.111269,-4.18755 -4.788588,-6.70185 -10.014294,-9.40456 -1.653434,-0.85515 -3.062393,-1.7011 -3.131,-1.87989 -0.06861,-0.17879 -0.0254,-0.49983 0.09583,-0.71342 0.121312,-0.21359 2.929256,-3.18549 6.239855,-6.60424 3.310599,-3.41874 6.019271,-6.39834 6.019271,-6.62135 0,-0.69765 -0.960411,-0.75556 -3.499327,-0.211 -1.349586,0.28947 -4.239736,0.83745 -6.422549,1.21773 -2.182812,0.38029 -6.061419,1.10023 -8.619146,1.59985 -5.816997,1.13631 -14.1426674,2.48955 -15.6726999,2.54743 -0.63648172,0.0241 -1.31140736,-0.0515 -1.49981716,-0.16794 C -1.025859,324.64497 -0.61387623,320.31219 0.56936692,314.14477 2.2747124,305.25603 2.591207,302.24033 2.255583,298.0776 c -0.4176183,-5.17942 -1.50696086,-7.4378 -5.4067076,-11.20906 -3.9646226,-3.83397 -9.5106864,-6.43515 -15.1922964,-7.12539 -3.308323,-0.40191 -7.475458,-0.20476 -11.228176,0.53122 -3.816456,0.74847 -11.47019,3.24815 -18.25625,5.96241 -9.324499,3.72958 -11.614203,4.58677 -18.123959,6.785 -7.183623,2.42578 -10.715625,3.23668 -10.715625,2.46017 0,-0.14942 1.144137,-1.96513 2.54254,-4.03489 6.416437,-9.49695 9.432422,-19.08421 8.950113,-28.45085 -0.220874,-4.28977 -1.602078,-11.16253 -2.753783,-13.70254 -1.398614,-3.08458 -2.808473,-4.16646 -5.431579,-4.16802 -2.808049,-0.002 -6.784207,1.62614 -20.6375,8.44878 -11.54229,5.68449 -27.2606,14.01221 -52.26984,27.69308 -10.26854,5.61722 -18.23291,9.72363 -18.85896,9.72363 -0.61517,0 -1.21198,-0.89878 -1.859,-2.79958 -1.68632,-4.95401 -5.7935,-11.26244 -10.46644,-16.07596 -3.28274,-3.38149 -5.87715,-5.2782 -9.08139,-6.63917 -2.45562,-1.043 -2.99365,-1.17061 -5.64411,-1.33871 -2.76792,-0.17554 -3.09392,-0.14023 -5.90224,0.63925 -3.40554,0.94525 -7.43438,2.87212 -11.46134,5.4816 -10.51929,6.81656 -24.20513,15.13174 -28.18264,17.1231 -5.39033,2.69869 -13.23495,5.98324 -20.64644,8.64467 -2.9468,1.05818 -5.35781,2.06545 -5.35781,2.23837 0,0.38963 0.0961,0.43353 7.54062,3.44548 9.77249,3.95381 10.81534,4.50738 15.33593,8.1407 3.85721,3.10014 3.81846,3.08791 9.79949,3.09505 l 5.02708,0.006 3.43959,1.67723 c 1.89177,0.92248 5.34458,2.7245 7.67291,4.00449 12.15515,6.68223 13.25655,7.11531 15.15379,5.95856 0.47646,-0.2905 1.20395,-0.52818 1.61664,-0.52818 0.41268,0 2.31752,0.71248 4.23296,1.58328 1.91544,0.8708 5.05748,2.25469 6.98232,3.07529 4.54036,1.93568 6.58407,2.97136 9.08506,4.60403 1.12227,0.73262 2.28921,1.38609 2.59319,1.45216 0.30399,0.0661 2.4731,0.22863 4.82025,0.36126 3.78812,0.21405 4.42084,0.31813 5.63205,0.92649 1.50908,0.75796 3.61003,2.14714 3.86071,2.55275 0.1397,0.22605 -0.43211,8.2094 -0.80519,11.24162 -0.0716,0.58208 -0.24764,2.59397 -0.39115,4.47087 -0.14352,1.8769 -0.39679,3.57623 -0.56283,3.77629 -0.39721,0.47861 -0.9338,0.29703 -3.70851,-1.25499 -1.25989,-0.70472 -2.62911,-1.36275 -3.04271,-1.4623 -1.10084,-0.26496 -2.61221,-1.06725 -4.8416,-2.57008 -2.91111,-1.96238 -4.14954,-3.20647 -5.97521,-6.0025 -2.28085,-3.49315 -2.60803,-3.73356 -5.94247,-4.36639 -3.8002,-0.72123 -9.25933,-2.32619 -11.49945,-3.38079 -1.30423,-0.614 -2.99302,-1.65883 -3.75288,-2.32185 -2.49426,-2.17639 -9.73779,-5.75563 -12.83781,-6.34354 -0.82964,-0.15733 -2.23027,-0.15355 -3.81028,0.0103 -1.9342,0.20056 -2.7277,0.18007 -3.51379,-0.0908 -0.55846,-0.19241 -2.92803,-1.80409 -5.26571,-3.58151 -2.33769,-1.77743 -4.61064,-3.33502 -5.051,-3.46132 -0.44037,-0.12629 -1.49318,-0.16716 -2.33957,-0.0908 l -1.53889,0.13881 -7.40833,-3.71674 c -5.59764,-2.80832 -8.53104,-4.46933 -12.00177,-6.79592 -2.52639,-1.69355 -5.91967,-3.73338 -7.54063,-4.53295 -1.62095,-0.79957 -3.34479,-1.65421 -3.83075,-1.8992 -0.48596,-0.24499 -2.27189,-1.4969 -3.96875,-2.78203 -1.69685,-1.28513 -3.35308,-2.44305 -3.6805,-2.57314 -0.32742,-0.1301 -0.59531,-0.34857 -0.59531,-0.48551 0,-0.13694 -2.55985,-2.23482 -5.68855,-4.66197 -5.13961,-3.98717 -6.15108,-4.89175 -5.46975,-4.89175 0.39581,0 7.26597,1.78961 10.06205,2.62107 1.50712,0.44816 2.83534,0.75605 2.95161,0.68419 0.30788,-0.19028 1.70062,-4.14509 2.5236,-7.16598 1.23219,-4.52294 0.91318,-6.95363 -1.03386,-7.87756 -1.28287,-0.60876 -2.73766,-0.53992 -5.54427,0.26238 -3.41833,0.97717 -5.75553,1.97631 -15.39563,6.58157 -13.28965,6.34872 -20.17821,9.41434 -26.39072,11.7447 -10.70927,4.01712 -15.88037,6.33431 -20.74424,9.29561 -5.15884,3.14088 -7.57325,5.18395 -10.11605,8.56018 -3.53467,4.6932 -5.02851,8.46031 -6.15064,15.51051 -0.71817,4.51218 -0.79849,5.73239 -1.02756,15.61041 -0.63743,27.48674 -1.00699,31.61264 -4.34885,48.55105 -3.59309,18.21179 -4.63553,26.02967 -5.16844,38.76146 -0.39825,9.51447 -0.69264,12.78131 -1.50211,16.66875 -0.73998,3.55373 -2.0252,6.55663 -3.47172,8.11162 -1.66079,1.78533 -4.22302,2.42031 -6.2868,1.558 -1.46813,-0.61342 -3.73611,-2.96087 -4.90305,-5.07484 -1.49442,-2.70723 -2.34244,-5.38887 -4.63125,-14.6452 -4.54783,-18.39218 -7.26114,-30.55766 -8.70366,-39.02404 -1.26956,-7.45125 -1.83469,-9.83309 -3.08697,-13.0108 -1.55762,-3.9525 -3.55964,-5.94613 -5.5354,-5.51218 l -0.78537,0.1725 0.0125,-46.64321 c 0.0115,-43.24615 0.0447,-46.67887 0.45567,-47.13295 0.31872,-0.35218 0.44942,-1.00294 0.46531,-2.31672 0.0182,-1.50187 0.12613,-1.93771 0.60669,-2.44924 0.32152,-0.34224 0.58459,-0.83798 0.58459,-1.10165 0,-0.26366 0.35718,-1.18228 0.79375,-2.04138 0.43656,-0.8591 0.79375,-1.79215 0.79375,-2.07345 0,-0.28131 0.24703,-1.13818 0.54895,-1.90418 0.30193,-0.76599 0.59615,-1.76128 0.65382,-2.21176 0.0577,-0.45048 0.3942,-1.34621 0.74783,-1.99052 0.35363,-0.64431 0.72315,-1.58819 0.82115,-2.09751 0.098,-0.50932 0.39448,-1.52135 0.65882,-2.24896 0.73676,-2.02793 1.06734,-3.16693 1.06734,-3.67748 0,-0.25569 0.4159,-1.3296 0.92423,-2.38644 0.50832,-1.05685 0.99795,-2.32747 1.08806,-2.8236 0.27664,-1.52307 0.89082,-3.19055 1.42556,-3.87037 0.28012,-0.35611 0.74106,-1.26268 1.0243,-2.01459 0.28324,-0.7519 1.25634,-2.91491 2.16245,-4.80668 2.11491,-4.41551 3.42957,-7.4796 3.42957,-7.99335 0,-0.34789 0.0639,-0.35398 0.44766,-0.0427 0.30419,0.24674 0.38398,0.25712 0.24897,0.0324 -0.15889,-0.26448 44.82808,-0.33073 224.58307,-0.33073 H 63.037785 l 1.066826,1.52135 c 2.046261,2.91807 3.416009,5.08659 3.812778,6.03621 0.21979,0.52603 0.698897,1.31209 1.064684,1.74681 0.365786,0.43472 0.665083,0.90686 0.665083,1.0492 0,0.48281 1.043781,2.55304 1.6696,3.31149 0.342503,0.4151 1.346147,2.24301 2.230279,4.06202 3.100599,6.37913 4.566788,9.53529 4.566788,9.83056 0,0.16387 0.667676,1.56114 1.483757,3.10505 1.436767,2.71824 2.749576,6.13629 2.749576,7.15885 0,0.72427 -0.526732,0.80176 -1.643115,0.24173 -0.539909,-0.27084 -1.081934,-0.49243 -1.204489,-0.49243 -0.3819,0 -1.177423,2.58089 -0.983668,3.19133 0.09972,0.31423 0.595312,1.02956 1.101301,1.58961 0.879184,0.97318 0.905299,1.0588 0.589254,1.93279 -0.290513,0.80339 -0.268949,1.00207 0.177429,1.63541 0.279427,0.3965 0.578882,0.85304 0.665401,1.01453 0.653653,1.21999 0.76872,1.60231 0.76872,2.5539 0,0.86126 0.160417,1.22336 0.801344,1.80875 0.690351,0.63055 0.83476,1.00405 1.04267,2.69706 0.28866,2.35041 0.784278,4.19344 1.555697,5.78517 0.312976,0.64579 0.56904,1.44533 0.56904,1.77675 0,0.33141 0.357187,1.16579 0.79375,1.85418 0.843385,1.32986 0.958585,1.93312 0.524245,2.7447 -0.202406,0.37821 -0.14179,0.7418 0.24347,1.46063 0.486436,0.90759 0.490696,1.01715 0.08213,2.11952 -0.371739,1.00298 -0.382534,1.29932 -0.07863,2.16 0.193702,0.54865 0.523769,1.19393 0.733478,1.43396 0.209682,0.24003 0.546762,1.01393 0.749009,1.71979 0.202274,0.70586 0.606584,1.93822 0.898446,2.73858 0.291888,0.80037 0.467757,1.66416 0.390816,1.91954 -0.08401,0.27888 0.02887,0.52907 0.282601,0.62644 0.623517,0.23926 1.032775,1.1208 0.704136,1.51677 -0.156686,0.18881 -0.204523,0.95443 -0.114274,1.82889 0.118798,1.1512 0.270854,1.54082 0.648044,1.66053 0.587137,0.18636 0.624391,0.85055 0.0875,1.56038 -0.524404,0.69334 -0.489347,1.12676 0.157665,1.94933 0.445453,0.56629 0.538956,1.0374 0.507154,2.55527 -0.02143,1.02354 0.04019,2.39676 0.137001,3.0516 0.09678,0.65485 0.06466,1.67504 -0.07136,2.26709 -0.195025,0.8487 -0.146738,1.32454 0.228123,2.24896 0.597959,1.47458 0.619893,2.21047 0.08186,2.74849 -0.387827,0.38783 -0.365734,0.46833 0.264583,0.96414 0.826347,0.65 0.856218,1.11858 0.158591,2.48695 -0.291042,0.57086 -0.529167,1.43567 -0.529167,1.92179 0,0.74419 0.125439,0.92759 0.79375,1.16056 0.641562,0.22366 0.79375,0.42731 0.79375,1.06223 0,0.43513 -0.302101,1.1816 -0.67728,1.67348 -0.556657,0.72982 -0.645292,1.05852 -0.497602,1.84571 0.146659,0.78172 0.28329,0.94353 0.743426,0.88033 0.699506,-0.0961 0.699929,0.45488 0.0026,2.27313 -0.481092,1.25272 -0.481383,1.30126 -0.01032,1.5875 1.398878,0.84999 1.334478,0.57871 1.396073,5.8816 0.04426,3.8101 -0.03053,5.19976 -0.316706,5.88471 -0.521255,1.24753 -0.473445,1.72139 0.286782,2.84163 0.481145,0.709 0.661458,1.3253 0.661458,2.26071 0,0.7073 0.121338,1.286 0.269637,1.286 0.148273,0 0.20492,0.26789 0.125836,0.59531 -0.07908,0.32742 -0.03114,1.47307 0.106548,2.54588 0.299984,2.33777 0.185182,2.77667 -0.670163,2.56199 -0.663681,-0.16657 -0.746945,0.0348 -0.458841,1.10984 0.08774,0.32742 0.310357,0.59531 0.494692,0.59531 0.70985,0 0.888074,2.4154 0.266224,3.60778 -0.563669,1.08077 -0.523902,2.21305 0.07773,2.21305 0.985944,0 1.504262,1.35323 0.791395,2.06611 -0.175921,0.17593 -0.352028,1.00341 -0.391345,1.83886 -0.03929,0.83544 -0.116443,2.23337 -0.17145,3.10649 -0.109008,1.73077 0.0056,2.33176 0.397881,2.08923 0.405526,-0.25063 1.278519,0.71128 1.278519,1.40876 0,0.85069 -0.456406,1.66139 -0.935355,1.66139 -0.648547,0 -0.438044,1.13048 0.323559,1.73777 l 0.711094,0.56702 -0.357399,1.89425 c -0.273473,1.44926 -0.287787,2.12115 -0.06101,2.86011 0.163036,0.53122 0.210635,1.11918 0.105754,1.30658 -0.104881,0.1874 -0.127238,1.19455 -0.04969,2.23811 0.09628,1.29597 0.03717,2.03373 -0.186451,2.3275 -0.462757,0.6079 -0.420873,2.0516 0.08181,2.81875 0.414787,0.63308 0.41021,1.01489 -0.03805,3.17515 -0.145071,0.69904 -0.07525,0.83409 0.547105,1.05834 0.708422,0.25525 0.713952,0.27732 0.796687,3.16705 0.06731,2.35136 0.004,2.99773 -0.330226,3.36696 -0.297895,0.32916 -0.375868,0.79096 -0.278898,1.65139 0.104061,0.9232 0.02196,1.32441 -0.361738,1.76676 -0.584253,0.67366 -0.571077,0.51909 -0.210476,2.46979 0.251671,1.36149 0.216826,1.75085 -0.291333,3.25526 -0.356156,1.05442 -0.517472,2.0074 -0.421243,2.48855 0.122846,0.61428 -0.101521,1.22613 -1.057381,2.88331 -0.692917,1.20133 -1.274339,2.5839 -1.355566,3.22348 -0.07824,0.61595 -0.266938,1.27733 -0.419338,1.46973 -0.457333,0.57737 -1.476772,3.24096 -1.936195,5.05891 -0.236934,0.93751 -0.652674,2.0686 -0.923898,2.51354 -0.271225,0.44494 -0.568246,1.37245 -0.660083,2.06114 -0.09184,0.68868 -0.324009,1.38249 -0.515964,1.5418 -0.191955,0.1593 -0.493871,0.96505 -0.670957,1.79055 -0.177085,0.8255 -0.465799,1.6795 -0.641614,1.89778 -0.175816,0.21828 -0.397669,1.01429 -0.493051,1.76891 -0.09536,0.75461 -0.349674,1.70711 -0.56515,2.11666 -0.232066,0.4411 -0.37518,1.35595 -0.351076,2.24427 0.03019,1.11202 -0.106151,1.74851 -0.52742,2.46252 -0.450586,0.7637 -0.568114,1.39095 -0.568114,3.03212 0,2.11487 -0.413411,3.6055 -1.175332,4.23784 -0.553032,0.45897 -0.566076,1.90722 -0.01535,1.69587 0.523717,-0.20097 0.526468,0.96548 0.0058,2.45965 -0.210846,0.60507 -0.376211,1.73617 -0.367506,2.51354 0.01905,1.69629 -0.665401,3.55789 -1.376416,3.74382 -0.365892,0.0957 -0.510884,0.36588 -0.510884,0.95212 0,0.45018 0.119063,0.81852 0.264584,0.81852 0.518954,0 0.281358,1.25681 -0.264584,1.39958 -0.455427,0.11909 -0.529166,0.36089 -0.529166,1.73503 0,0.87816 0.125545,1.67424 0.27895,1.76906 0.183356,0.11332 0.122608,0.41106 -0.177244,0.8687 -0.287973,0.43949 -0.470747,1.28426 -0.495618,2.2906 -0.03826,1.54951 -0.239633,2.17807 -1.639067,5.11606 -0.495247,1.03969 -0.663575,1.81004 -0.647356,2.9623 0.01905,1.35514 -0.06297,1.62401 -0.632143,2.07174 -0.573008,0.45072 -0.634629,0.65746 -0.497178,1.66791 0.141128,1.0374 0.04789,1.3164 -0.927127,2.77426 -1.056984,1.58041 -1.35427,2.48018 -0.819467,2.48018 0.374359,0 0.329406,0.61719 -0.160259,2.19924 -0.616082,1.99065 -1.152313,3.14134 -1.789271,3.83969 -0.381873,0.41867 -0.60362,1.09426 -0.694743,2.11666 l -0.133852,1.5017 -13.67208,0.0685 -13.672106,0.0685 1.923124,-2.84663 z m 46.670888,-144.32909 -0.336101,-0.59882 -0.09289,0.61456 c -0.05109,0.338 -0.01588,0.81425 0.07813,1.05833 0.158512,0.41139 0.189838,0.41024 0.428969,-0.0157 0.176583,-0.31451 0.151923,-0.64848 -0.0781,-1.05834 z m -213.469627,52.66794 c -2.53478,-0.29287 -5.62567,-1.89946 -7.45437,-3.87465 -2.11478,-2.28425 -3.18521,-4.94661 -3.33748,-8.301 -0.0951,-2.095 -0.0132,-2.90533 0.44733,-4.42128 1.09387,-3.60132 4.16068,-6.91741 7.61342,-8.23225 2.15934,-0.82231 5.80948,-1.00809 7.89495,-0.40182 2.45647,0.71411 4.08453,1.66882 5.84086,3.42516 3.62829,3.6283 4.67546,8.49475 2.92122,13.57563 -0.82487,2.38907 -1.93607,4.0207 -3.67359,5.39414 -3.07268,2.42881 -6.22641,3.30122 -10.25234,2.83607 z m -85.51819,-1.66965 c -3.28415,-0.83388 -6.23298,-2.85612 -7.84722,-5.38142 -3.41428,-5.3413 -2.62041,-12.42924 1.85633,-16.57392 5.07095,-4.6948 12.55417,-4.72115 17.58669,-0.0619 4.26066,3.94463 5.26366,10.0406 2.58447,15.70788 -0.68284,1.4444 -3.42279,4.23884 -4.91057,5.00819 -2.81113,1.4537 -6.58359,1.98324 -9.2697,1.3012 z m 48.8538,-12.70336 c -0.44496,-0.82854 -0.83632,-2.38617 -1.46253,-5.82083 -0.7545,-4.13838 -0.71873,-8.25928 0.13135,-15.13507 0.35617,-2.88082 0.72587,-5.92881 0.82155,-6.77332 0.19581,-1.72833 1.3228,-4.53075 1.72266,-4.28363 0.39877,0.24645 0.31592,1.04109 -0.26847,2.57512 -0.86659,2.2748 -1.72321,11.19442 -1.70909,17.79607 0.008,3.69365 0.11733,4.97746 0.612,7.17981 0.62365,2.77665 0.71721,5.51332 0.15253,4.46185 z m 7.4683,-59.35436 c -0.3271,-0.36143 -0.64097,-2.13198 -1.23128,-6.94557 -0.43575,-3.55327 -0.96407,-7.82971 -1.17404,-9.5032 -0.29519,-2.35271 -0.31032,-3.11296 -0.0667,-3.35254 0.39822,-0.39164 7.55624,-3.26204 8.1347,-3.26204 0.23659,0 1.07427,0.35503 1.86149,0.78896 0.78724,0.43392 1.6729,0.79111 1.96815,0.79375 0.69964,0.006 4.63847,-2.54708 9.12048,-5.9123 l 3.57188,-2.68187 h 5.68854 5.68854 l 2.91042,-1.6492 c 3.28062,-1.85898 10.70038,-5.1625 14.287496,-6.36128 1.309688,-0.43768 3.690938,-1.0595 5.291667,-1.38183 1.600729,-0.32233 3.148542,-0.70933 3.439584,-0.86001 0.291041,-0.15068 1.500081,-1.20133 2.686791,-2.33478 1.186682,-1.13344 2.615432,-2.29216 3.175,-2.57493 0.559541,-0.28276 3.636751,-1.37192 6.838209,-2.42036 14.526128,-4.75711 17.102985,-5.75719 25.441302,-9.87381 7.973986,-3.93675 10.055305,-4.44229 20.397656,-4.9545 6.777964,-0.33568 9.66859,-0.33996 9.467162,-0.014 -0.210635,0.34081 -6.014376,3.33503 -10.795529,5.56952 -2.831148,1.32316 -5.127916,2.164 -8.334375,3.0512 -4.758611,1.31668 -5.995221,1.89393 -9.543363,4.45485 -6.790743,4.9013 -15.43857,10.67446 -16.835491,11.23913 -0.915246,0.36996 -3.56907,0.9692 -6.225487,1.40571 -2.546615,0.41847 -4.96226,0.89411 -5.368131,1.05698 -0.475721,0.19091 -1.532335,1.40211 -2.973811,3.40893 -3.157988,4.39652 -3.186801,4.41716 -8.858303,6.3497 -3.779335,1.28779 -4.888151,1.50275 -10.184131,1.9743 -2.328336,0.20732 -4.650056,0.52088 -5.159376,0.69681 -1.19652,0.41329 -3.22437,1.93067 -4.89479,3.66264 -1.80136,1.86775 -2.89637,2.37687 -5.7463,2.67171 -2.3309,0.24116 -2.42115,0.27654 -3.87633,1.51933 -0.81944,0.69984 -1.90659,1.55556 -2.41591,1.9016 -0.50933,0.34605 -1.61325,1.25735 -2.45314,2.02511 -1.02722,0.93901 -1.89328,1.484 -2.64583,1.66494 -0.61532,0.14795 -2.01171,0.56973 -3.10312,0.93729 -1.0914,0.36756 -2.5097,0.66712 -3.15174,0.6657 -1.39975,-0.003 -1.92005,0.28525 -8.31795,4.61009 -6.79531,4.59348 -6.0942,4.20826 -6.6139,3.634 z"
           style="fill:#c73d1b;stroke-width:0.26458335" />
        <path
           sodipodi:nodetypes="cccccccccsccsssccssscccsscccscccscccccsccccsssccccsssccscccssssssccscsscccccccccccscccccccscccsccsccscscccsssscsssssssccssccccccsscsccsscscccccsccscsccsccscscscccccscccsccccccccccccccccccccccscsccccccccssccccscsccccssccccsccccccccccccccccccccccccssccsccsscsccccccccscccccccccccccccccccccccccscsccscccccccccccccccccsccssccccccccccscccccccccccscscsccccccccccccsscsccscccccsccccssccccccccsccccscccccscc"
           inkscape:connector-curvature="0"
           id="path882"
           d="m -405.24155,458.55594 c 0.0241,-35.63448 0.12498,-55.45488 0.27051,-53.1325 1.39305,22.22984 6.01198,44.79418 13.48592,65.88125 1.75362,4.94771 3.64154,10.12693 4.19537,11.50937 1.93732,4.83587 8.3975,18.42346 10.62972,22.3573 1.23861,2.18281 3.77058,6.64686 5.6266,9.92007 1.85603,3.27324 4.14301,7.05348 5.08218,8.40052 l 1.70759,2.4492 h -19.19522 c -6.37541,-0.24136 -10.92302,-4.21268 -14.153,-10.58646 -6.49494,-12.81655 -7.66216,-35.34723 -7.64967,-56.79875 z m 453.833269,64.54332 c 1.057699,-1.56567 5.149851,-8.75575 9.093624,-15.97798 8.413221,-15.4071 10.774204,-20.56243 15.776179,-34.44784 6.558438,-18.20612 11.022145,-37.64737 13.010674,-56.66667 1.297887,-12.41375 1.806866,-23.86672 1.158266,-26.06321 -0.382482,-1.29533 -0.960041,-5.48846 -1.424861,-10.34509 -0.67392,-7.04108 -1.786678,-10.55524 -3.342296,-10.55524 -1.79324,0 -4.007458,4.79352 -7.394125,16.00729 -1.193139,3.95067 -3.229557,13.49909 -4.091067,19.18229 -1.77718,11.72376 -1.854174,13.42887 -1.863487,41.275 -0.0082,24.26531 -0.02381,25.04543 -0.533241,26.4367 -0.298344,0.81492 -0.826373,1.6557 -1.223539,1.94829 -1.259391,0.92782 -2.283725,0.32442 -6.136032,-3.61453 -5.6066,-5.7327 -12.480872,-14.75837 -16.681159,-21.90176 -5.954237,-10.12633 -8.709132,-21.361 -8.26352,-33.69921 0.207962,-5.75791 1.037669,-17.27514 1.872535,-25.99298 2.114842,-22.08316 1.319557,-35.86196 -2.508012,-43.4536 -2.111269,-4.18755 -4.788588,-6.70185 -10.014294,-9.40456 -1.653434,-0.85515 -3.062393,-1.7011 -3.131,-1.87989 -0.06861,-0.17879 -0.0254,-0.49983 0.09583,-0.71342 0.121312,-0.21359 2.929256,-3.18549 6.239855,-6.60424 3.310599,-3.41874 6.019271,-6.39834 6.019271,-6.62135 0,-0.69765 -0.960411,-0.75556 -3.499327,-0.211 -1.349586,0.28947 -4.239736,0.83745 -6.422549,1.21773 -2.182812,0.38029 -6.061419,1.10023 -8.619146,1.59985 -5.816997,1.13631 -14.1426674,2.48955 -15.6726999,2.54743 -0.63648172,0.0241 -1.31140736,-0.0515 -1.49981716,-0.16794 C -1.025859,324.64497 -0.61387623,320.31219 0.56936692,314.14477 2.2747124,305.25603 2.591207,302.24033 2.255583,298.0776 c -0.4176183,-5.17942 -1.50696086,-7.4378 -5.4067076,-11.20906 -3.9646226,-3.83397 -9.5106864,-6.43515 -15.1922964,-7.12539 -3.308323,-0.40191 -7.475458,-0.20476 -11.228176,0.53122 -3.816456,0.74847 -11.47019,3.24815 -18.25625,5.96241 -9.324499,3.72958 -11.614203,4.58677 -18.123959,6.785 -7.183623,2.42578 -10.715625,3.23668 -10.715625,2.46017 0,-0.14942 1.144137,-1.96513 2.54254,-4.03489 6.416437,-9.49695 9.432422,-19.08421 8.950113,-28.45085 -0.220874,-4.28977 -1.602078,-11.16253 -2.753783,-13.70254 -1.398614,-3.08458 -2.808473,-4.16646 -5.431579,-4.16802 -2.808049,-0.002 -6.784207,1.62614 -20.6375,8.44878 -11.54229,5.68449 -27.2606,14.01221 -52.26984,27.69308 -10.26854,5.61722 -18.23291,9.72363 -18.85896,9.72363 -0.61517,0 -1.21198,-0.89878 -1.859,-2.79958 -1.68632,-4.95401 -5.7935,-11.26244 -10.46644,-16.07596 -3.28274,-3.38149 -5.87715,-5.2782 -9.08139,-6.63917 -2.45562,-1.043 -2.99365,-1.17061 -5.64411,-1.33871 -2.76792,-0.17554 -3.09392,-0.14023 -5.90224,0.63925 -3.40554,0.94525 -7.43438,2.87212 -11.46134,5.4816 -10.51929,6.81656 -24.20513,15.13174 -28.18264,17.1231 -5.39033,2.69869 -13.23495,5.98324 -20.64644,8.64467 -2.9468,1.05818 -5.35781,2.06545 -5.35781,2.23837 0,0.38963 0.0961,0.43353 7.54062,3.44548 9.77249,3.95381 10.81534,4.50738 15.33593,8.1407 3.85721,3.10014 3.81846,3.08791 9.79949,3.09505 l 5.02708,0.006 3.43959,1.67723 c 1.89177,0.92248 5.34458,2.7245 7.67291,4.00449 12.15515,6.68223 13.25655,7.11531 15.15379,5.95856 0.47646,-0.2905 1.20395,-0.52818 1.61664,-0.52818 0.41268,0 2.31752,0.71248 4.23296,1.58328 1.91544,0.8708 5.05748,2.25469 6.98232,3.07529 4.54036,1.93568 6.58407,2.97136 9.08506,4.60403 1.12227,0.73262 2.28921,1.38609 2.59319,1.45216 0.30399,0.0661 2.4731,0.22863 4.82025,0.36126 3.78812,0.21405 4.42084,0.31813 5.63205,0.92649 1.50908,0.75796 3.61003,2.14714 3.86071,2.55275 0.1397,0.22605 -0.43211,8.2094 -0.80519,11.24162 -0.0716,0.58208 -0.24764,2.59397 -0.39115,4.47087 -0.14352,1.8769 -0.39679,3.57623 -0.56283,3.77629 -0.39721,0.47861 -0.9338,0.29703 -3.70851,-1.25499 -1.25989,-0.70472 -2.62911,-1.36275 -3.04271,-1.4623 -1.10084,-0.26496 -2.61221,-1.06725 -4.8416,-2.57008 -2.91111,-1.96238 -4.14954,-3.20647 -5.97521,-6.0025 -2.28085,-3.49315 -2.60803,-3.73356 -5.94247,-4.36639 -3.8002,-0.72123 -9.25933,-2.32619 -11.49945,-3.38079 -1.30423,-0.614 -2.99302,-1.65883 -3.75288,-2.32185 -2.49426,-2.17639 -9.73779,-5.75563 -12.83781,-6.34354 -0.82964,-0.15733 -2.23027,-0.15355 -3.81028,0.0103 -1.9342,0.20056 -2.7277,0.18007 -3.51379,-0.0908 -0.55846,-0.19241 -2.92803,-1.80409 -5.26571,-3.58151 -2.33769,-1.77743 -4.61064,-3.33502 -5.051,-3.46132 -0.44037,-0.12629 -1.49318,-0.16716 -2.33957,-0.0908 l -1.53889,0.13881 -7.40833,-3.71674 c -5.59764,-2.80832 -8.53104,-4.46933 -12.00177,-6.79592 -2.52639,-1.69355 -5.91967,-3.73338 -7.54063,-4.53295 -1.62095,-0.79957 -3.34479,-1.65421 -3.83075,-1.8992 -0.48596,-0.24499 -2.27189,-1.4969 -3.96875,-2.78203 -1.69685,-1.28513 -3.35308,-2.44305 -3.6805,-2.57314 -0.32742,-0.1301 -0.59531,-0.34857 -0.59531,-0.48551 0,-0.13694 -2.55985,-2.23482 -5.68855,-4.66197 -5.13961,-3.98717 -6.15108,-4.89175 -5.46975,-4.89175 0.39581,0 7.26597,1.78961 10.06205,2.62107 1.50712,0.44816 2.83534,0.75605 2.95161,0.68419 0.30788,-0.19028 1.70062,-4.14509 2.5236,-7.16598 1.23219,-4.52294 0.91318,-6.95363 -1.03386,-7.87756 -1.28287,-0.60876 -2.73766,-0.53992 -5.54427,0.26238 -3.41833,0.97717 -5.75553,1.97631 -15.39563,6.58157 -13.28965,6.34872 -20.17821,9.41434 -26.39072,11.7447 -10.70927,4.01712 -15.88037,6.33431 -20.74424,9.29561 -5.15884,3.14088 -7.57325,5.18395 -10.11605,8.56018 -3.53467,4.6932 -5.02851,8.46031 -6.15064,15.51051 -0.71817,4.51218 -0.79849,5.73239 -1.02756,15.61041 -0.63743,27.48674 -1.00699,31.61264 -4.34885,48.55105 -3.59309,18.21179 -4.63553,26.02967 -5.16844,38.76146 -0.39825,9.51447 -0.69264,12.78131 -1.50211,16.66875 -0.73998,3.55373 -2.0252,6.55663 -3.47172,8.11162 -1.66079,1.78533 -4.22302,2.42031 -6.2868,1.558 -1.46813,-0.61342 -3.73611,-2.96087 -4.90305,-5.07484 -1.49442,-2.70723 -2.34244,-5.38887 -4.63125,-14.6452 -4.54783,-18.39218 -7.26114,-30.55766 -8.70366,-39.02404 -1.26956,-7.45125 -1.83469,-9.83309 -3.08697,-13.0108 -1.55762,-3.9525 -3.55964,-5.94613 -5.5354,-5.51218 l -0.78537,0.1725 0.0125,-46.64321 c 0.0115,-43.24615 0.0447,-46.67887 0.45567,-47.13295 0.31872,-0.35218 0.44942,-1.00294 0.46531,-2.31672 0.0182,-1.50187 0.12613,-1.93771 0.60669,-2.44924 0.32152,-0.34224 0.58459,-0.83798 0.58459,-1.10165 0,-0.26366 0.35718,-1.18228 0.79375,-2.04138 0.43656,-0.8591 0.79375,-1.79215 0.79375,-2.07345 0,-0.28131 0.24703,-1.13818 0.54895,-1.90418 0.30193,-0.76599 0.59615,-1.76128 0.65382,-2.21176 0.0577,-0.45048 0.3942,-1.34621 0.74783,-1.99052 0.35363,-0.64431 0.72315,-1.58819 0.82115,-2.09751 0.098,-0.50932 0.39448,-1.52135 0.65882,-2.24896 0.73676,-2.02793 1.06734,-3.16693 1.06734,-3.67748 0,-0.25569 0.4159,-1.3296 0.92423,-2.38644 0.50832,-1.05685 0.99795,-2.32747 1.08806,-2.8236 0.27664,-1.52307 0.89082,-3.19055 1.42556,-3.87037 0.28012,-0.35611 0.74106,-1.26268 1.0243,-2.01459 0.28324,-0.7519 1.25634,-2.91491 2.16245,-4.80668 2.11491,-4.41551 3.42957,-7.4796 3.42957,-7.99335 0,-0.34789 0.0639,-0.35398 0.44766,-0.0427 0.30419,0.24674 0.38398,0.25712 0.24897,0.0324 -0.15889,-0.26448 44.82808,-0.33073 224.58307,-0.33073 H 63.037785 l 1.066826,1.52135 c 2.046261,2.91807 3.416009,5.08659 3.812778,6.03621 0.21979,0.52603 0.698897,1.31209 1.064684,1.74681 0.365786,0.43472 0.665083,0.90686 0.665083,1.0492 0,0.48281 1.043781,2.55304 1.6696,3.31149 0.342503,0.4151 1.346147,2.24301 2.230279,4.06202 3.100599,6.37913 4.566788,9.53529 4.566788,9.83056 0,0.16387 0.667676,1.56114 1.483757,3.10505 1.436767,2.71824 2.749576,6.13629 2.749576,7.15885 0,0.72427 -0.526732,0.80176 -1.643115,0.24173 -0.539909,-0.27084 -1.081934,-0.49243 -1.204489,-0.49243 -0.3819,0 -1.177423,2.58089 -0.983668,3.19133 0.09972,0.31423 0.595312,1.02956 1.101301,1.58961 0.879184,0.97318 0.905299,1.0588 0.589254,1.93279 -0.290513,0.80339 -0.268949,1.00207 0.177429,1.63541 0.279427,0.3965 0.578882,0.85304 0.665401,1.01453 0.653653,1.21999 0.76872,1.60231 0.76872,2.5539 0,0.86126 0.160417,1.22336 0.801344,1.80875 0.690351,0.63055 0.83476,1.00405 1.04267,2.69706 0.28866,2.35041 0.784278,4.19344 1.555697,5.78517 0.312976,0.64579 0.56904,1.44533 0.56904,1.77675 0,0.33141 0.357187,1.16579 0.79375,1.85418 0.843385,1.32986 0.958585,1.93312 0.524245,2.7447 -0.202406,0.37821 -0.14179,0.7418 0.24347,1.46063 0.486436,0.90759 0.490696,1.01715 0.08213,2.11952 -0.371739,1.00298 -0.382534,1.29932 -0.07863,2.16 0.193702,0.54865 0.523769,1.19393 0.733478,1.43396 0.209682,0.24003 0.546762,1.01393 0.749009,1.71979 0.202274,0.70586 0.606584,1.93822 0.898446,2.73858 0.291888,0.80037 0.467757,1.66416 0.390816,1.91954 -0.08401,0.27888 0.02887,0.52907 0.282601,0.62644 0.623517,0.23926 1.032775,1.1208 0.704136,1.51677 -0.156686,0.18881 -0.204523,0.95443 -0.114274,1.82889 0.118798,1.1512 0.270854,1.54082 0.648044,1.66053 0.587137,0.18636 0.624391,0.85055 0.0875,1.56038 -0.524404,0.69334 -0.489347,1.12676 0.157665,1.94933 0.445453,0.56629 0.538956,1.0374 0.507154,2.55527 -0.02143,1.02354 0.04019,2.39676 0.137001,3.0516 0.09678,0.65485 0.06466,1.67504 -0.07136,2.26709 -0.195025,0.8487 -0.146738,1.32454 0.228123,2.24896 0.597959,1.47458 0.619893,2.21047 0.08186,2.74849 -0.387827,0.38783 -0.365734,0.46833 0.264583,0.96414 0.826347,0.65 0.856218,1.11858 0.158591,2.48695 -0.291042,0.57086 -0.529167,1.43567 -0.529167,1.92179 0,0.74419 0.125439,0.92759 0.79375,1.16056 0.641562,0.22366 0.79375,0.42731 0.79375,1.06223 0,0.43513 -0.302101,1.1816 -0.67728,1.67348 -0.556657,0.72982 -0.645292,1.05852 -0.497602,1.84571 0.146659,0.78172 0.28329,0.94353 0.743426,0.88033 0.699506,-0.0961 0.699929,0.45488 0.0026,2.27313 -0.481092,1.25272 -0.481383,1.30126 -0.01032,1.5875 1.398878,0.84999 1.334478,0.57871 1.396073,5.8816 0.04426,3.8101 -0.03053,5.19976 -0.316706,5.88471 -0.521255,1.24753 -0.473445,1.72139 0.286782,2.84163 0.481145,0.709 0.661458,1.3253 0.661458,2.26071 0,0.7073 0.121338,1.286 0.269637,1.286 0.148273,0 0.20492,0.26789 0.125836,0.59531 -0.07908,0.32742 -0.03114,1.47307 0.106548,2.54588 0.299984,2.33777 0.185182,2.77667 -0.670163,2.56199 -0.663681,-0.16657 -0.746945,0.0348 -0.458841,1.10984 0.08774,0.32742 0.310357,0.59531 0.494692,0.59531 0.70985,0 0.888074,2.4154 0.266224,3.60778 -0.563669,1.08077 -0.523902,2.21305 0.07773,2.21305 0.985944,0 1.504262,1.35323 0.791395,2.06611 -0.175921,0.17593 -0.352028,1.00341 -0.391345,1.83886 -0.03929,0.83544 -0.116443,2.23337 -0.17145,3.10649 -0.109008,1.73077 0.0056,2.33176 0.397881,2.08923 0.405526,-0.25063 1.278519,0.71128 1.278519,1.40876 0,0.85069 -0.456406,1.66139 -0.935355,1.66139 -0.648547,0 -0.438044,1.13048 0.323559,1.73777 l 0.711094,0.56702 -0.357399,1.89425 c -0.273473,1.44926 -0.287787,2.12115 -0.06101,2.86011 0.163036,0.53122 0.210635,1.11918 0.105754,1.30658 -0.104881,0.1874 -0.127238,1.19455 -0.04969,2.23811 0.09628,1.29597 0.03717,2.03373 -0.186451,2.3275 -0.462757,0.6079 -0.420873,2.0516 0.08181,2.81875 0.414787,0.63308 0.41021,1.01489 -0.03805,3.17515 -0.145071,0.69904 -0.07525,0.83409 0.547105,1.05834 0.708422,0.25525 0.713952,0.27732 0.796687,3.16705 0.06731,2.35136 0.004,2.99773 -0.330226,3.36696 -0.297895,0.32916 -0.375868,0.79096 -0.278898,1.65139 0.104061,0.9232 0.02196,1.32441 -0.361738,1.76676 -0.584253,0.67366 -0.571077,0.51909 -0.210476,2.46979 0.251671,1.36149 0.216826,1.75085 -0.291333,3.25526 -0.356156,1.05442 -0.517472,2.0074 -0.421243,2.48855 0.122846,0.61428 -0.101521,1.22613 -1.057381,2.88331 -0.692917,1.20133 -1.274339,2.5839 -1.355566,3.22348 -0.07824,0.61595 -0.266938,1.27733 -0.419338,1.46973 -0.457333,0.57737 -1.476772,3.24096 -1.936195,5.05891 -0.236934,0.93751 -0.652674,2.0686 -0.923898,2.51354 -0.271225,0.44494 -0.568246,1.37245 -0.660083,2.06114 -0.09184,0.68868 -0.324009,1.38249 -0.515964,1.5418 -0.191955,0.1593 -0.493871,0.96505 -0.670957,1.79055 -0.177085,0.8255 -0.465799,1.6795 -0.641614,1.89778 -0.175816,0.21828 -0.397669,1.01429 -0.493051,1.76891 -0.09536,0.75461 -0.349674,1.70711 -0.56515,2.11666 -0.232066,0.4411 -0.37518,1.35595 -0.351076,2.24427 0.03019,1.11202 -0.106151,1.74851 -0.52742,2.46252 -0.450586,0.7637 -0.568114,1.39095 -0.568114,3.03212 0,2.11487 -0.413411,3.6055 -1.175332,4.23784 -0.553032,0.45897 -0.566076,1.90722 -0.01535,1.69587 0.523717,-0.20097 0.526468,0.96548 0.0058,2.45965 -0.210846,0.60507 -0.376211,1.73617 -0.367506,2.51354 0.01905,1.69629 -0.665401,3.55789 -1.376416,3.74382 -0.365892,0.0957 -0.510884,0.36588 -0.510884,0.95212 0,0.45018 0.119063,0.81852 0.264584,0.81852 0.518954,0 0.281358,1.25681 -0.264584,1.39958 -0.455427,0.11909 -0.529166,0.36089 -0.529166,1.73503 0,0.87816 0.125545,1.67424 0.27895,1.76906 0.183356,0.11332 0.122608,0.41106 -0.177244,0.8687 -0.287973,0.43949 -0.470747,1.28426 -0.495618,2.2906 -0.03826,1.54951 -0.239633,2.17807 -1.639067,5.11606 -0.495247,1.03969 -0.663575,1.81004 -0.647356,2.9623 0.01905,1.35514 -0.06297,1.62401 -0.632143,2.07174 -0.573008,0.45072 -0.634629,0.65746 -0.497178,1.66791 0.141128,1.0374 0.04789,1.3164 -0.927127,2.77426 -1.056984,1.58041 -1.35427,2.48018 -0.819467,2.48018 0.374359,0 0.329406,0.61719 -0.160259,2.19924 -0.616082,1.99065 -1.152313,3.14134 -1.789271,3.83969 -0.381873,0.41867 -0.60362,1.09426 -0.694743,2.11666 l -0.133852,1.5017 -13.67208,0.0685 -13.672106,0.0685 1.923124,-2.84663 z m 46.670888,-144.32909 -0.336101,-0.59882 -0.09289,0.61456 c -0.05109,0.338 -0.01588,0.81425 0.07813,1.05833 0.158512,0.41139 0.189838,0.41024 0.428969,-0.0157 0.176583,-0.31451 0.151923,-0.64848 -0.0781,-1.05834 z m -223.671217,44.1802 c -0.76361,-1.83163 -0.83415,-5.83345 -0.14293,-8.10919 1.09387,-3.60132 4.16068,-6.91741 7.61342,-8.23225 3.2935,-1.25421 7.42577,-0.97668 10.78216,0.72413 1.72374,0.87348 4.39283,3.55567 5.27945,5.30535 1.50055,2.96121 1.88722,7.3398 0.84714,9.59312 l -0.42418,0.91899 0.11737,-0.80621 c 0.14737,-1.01229 -0.068,-1.36455 -0.90625,-1.48235 -0.49001,-0.0688 -0.64014,-0.23007 -0.57923,-0.62198 0.3012,-1.93755 0.34923,-3.30717 0.11597,-3.30717 -0.14531,0 -0.4889,0.62508 -0.76354,1.38906 -0.42047,1.1697 -0.6033,1.38907 -1.15763,1.38907 -0.65677,0 -0.65847,-0.007 -0.734,-2.90678 -0.084,-3.22258 -0.38296,-4.00116 -0.8526,-2.22011 -0.44878,1.702 -0.94527,2.34876 -1.803,2.34876 -0.4041,0 -0.88561,0.14883 -1.07003,0.33073 -0.807,0.79598 -1.31035,-1.23171 -1.11651,-4.49792 0.0652,-1.09953 -0.2534,-1.46666 -0.68893,-0.79375 -0.11771,0.1819 -0.27358,1.21434 -0.34634,2.2943 -0.0728,1.07996 -0.2617,2.00614 -0.41986,2.05818 -0.15817,0.0521 -0.47601,-0.38507 -0.70633,-0.97137 -0.59733,-1.52068 -1.13049,-1.37338 -1.64815,0.45535 -0.23683,0.83675 -0.49358,1.73649 -0.57054,1.99942 -0.0778,0.26601 -0.33338,0.44081 -0.57606,0.39408 -0.30824,-0.0594 -0.64,-0.84339 -1.13117,-2.67324 -0.38227,-1.42408 -0.85542,-2.9111 -1.05143,-3.30449 -0.32506,-0.65232 -0.37211,-0.42819 -0.53493,2.54774 -0.18857,3.44631 -0.4912,4.30659 -1.18454,3.36717 -0.20849,-0.28247 -0.38169,-0.75872 -0.38489,-1.05833 -0.008,-0.76285 -0.99568,-2.86005 -1.26765,-2.69198 -0.12342,0.0763 -0.37224,0.79928 -0.55292,1.60664 -0.18069,0.80736 -0.97475,2.73979 -1.76461,4.29429 -0.78984,1.5545 -1.43608,2.97593 -1.43608,3.15874 0,0.80262 -0.51184,0.53178 -0.94118,-0.498 z m -84.77085,-2.20137 c -2.25099,-7.28787 2.60284,-15.01762 10.23593,-16.30079 6.43167,-1.0812 12.82984,3.06435 14.51871,9.40707 0.45155,1.69584 0.47058,4.56928 0.0411,6.20151 l -0.32672,1.24165 -0.1363,-1.05834 c -0.1317,-1.02261 -0.16659,-1.05529 -1.03366,-0.96831 -0.78882,0.0791 -0.87076,0.0311 -0.67743,-0.39688 0.29494,-0.65296 0.49172,-3.71811 0.22161,-3.45205 -0.11717,0.11542 -0.51548,0.82979 -0.88514,1.5875 -1.219,2.49869 -1.79321,1.70428 -1.83635,-2.54056 -0.0145,-1.42742 -0.12815,-2.5324 -0.25254,-2.45552 -0.12439,0.0769 -0.48798,0.85781 -0.80796,1.7354 -0.49624,1.361 -0.6775,1.59563 -1.23263,1.59563 -0.35796,0 -0.8946,0.14883 -1.19253,0.33073 -0.46224,0.28222 -0.60021,0.25312 -0.9407,-0.19844 -0.30767,-0.40803 -0.37969,-1.11976 -0.31462,-3.10911 0.0611,-1.86673 -0.003,-2.57987 -0.23071,-2.57969 -0.53953,5.3e-4 -0.72349,0.58926 -0.86804,2.77839 -0.0775,1.17329 -0.25769,2.10354 -0.40435,2.08721 -0.14552,-0.0162 -0.47388,-0.46268 -0.72969,-0.99219 -0.74324,-1.53847 -1.17327,-1.21349 -1.77213,1.33927 -0.3777,1.60999 -0.90324,2.22133 -1.27695,1.48539 -0.13408,-0.26405 -0.57223,-1.69568 -0.97365,-3.18138 -0.40142,-1.48571 -0.89154,-2.91446 -1.08916,-3.17501 -0.3106,-0.4095 -0.36468,-0.0971 -0.39902,2.30441 -0.0694,4.85358 -0.59399,5.68997 -1.62634,2.59292 -0.7243,-2.17288 -1.25567,-2.48071 -1.58082,-0.91576 -0.27251,1.31159 -1.61777,4.37179 -2.60875,5.93442 -0.42668,0.6728 -0.77578,1.43106 -0.77578,1.68503 0,1.1375 -0.55031,0.62028 -1.04536,-0.9825 z m 58.30805,-3.6839 c -0.44496,-0.82854 -0.83632,-2.38617 -1.46253,-5.82083 -0.7545,-4.13838 -0.71873,-8.25928 0.13135,-15.13507 0.35617,-2.88082 0.72587,-5.92881 0.82155,-6.77332 0.19581,-1.72833 1.3228,-4.53075 1.72266,-4.28363 0.39877,0.24645 0.31592,1.04109 -0.26847,2.57512 -0.86659,2.2748 -1.72321,11.19442 -1.70909,17.79607 0.008,3.69365 0.11733,4.97746 0.612,7.17981 0.62365,2.77665 0.71721,5.51332 0.15253,4.46185 z m 7.4683,-59.35436 c -0.3271,-0.36143 -0.64097,-2.13198 -1.23128,-6.94557 -0.43575,-3.55327 -0.96407,-7.82971 -1.17404,-9.5032 -0.29519,-2.35271 -0.31032,-3.11296 -0.0667,-3.35254 0.39822,-0.39164 7.55624,-3.26204 8.1347,-3.26204 0.23659,0 1.07427,0.35503 1.86149,0.78896 0.78724,0.43392 1.6729,0.79111 1.96815,0.79375 0.69964,0.006 4.63847,-2.54708 9.12048,-5.9123 l 3.57188,-2.68187 h 5.68854 5.68854 l 2.91042,-1.6492 c 3.28062,-1.85898 10.70038,-5.1625 14.287496,-6.36128 1.309688,-0.43768 3.690938,-1.0595 5.291667,-1.38183 1.600729,-0.32233 3.148542,-0.70933 3.439584,-0.86001 0.291041,-0.15068 1.500081,-1.20133 2.686791,-2.33478 1.186682,-1.13344 2.615432,-2.29216 3.175,-2.57493 0.559541,-0.28276 3.636751,-1.37192 6.838209,-2.42036 14.526128,-4.75711 17.102985,-5.75719 25.441302,-9.87381 7.973986,-3.93675 10.055305,-4.44229 20.397656,-4.9545 6.777964,-0.33568 9.66859,-0.33996 9.467162,-0.014 -0.210635,0.34081 -6.014376,3.33503 -10.795529,5.56952 -2.831148,1.32316 -5.127916,2.164 -8.334375,3.0512 -4.758611,1.31668 -5.995221,1.89393 -9.543363,4.45485 -6.790743,4.9013 -15.43857,10.67446 -16.835491,11.23913 -0.915246,0.36996 -3.56907,0.9692 -6.225487,1.40571 -2.546615,0.41847 -4.96226,0.89411 -5.368131,1.05698 -0.475721,0.19091 -1.532335,1.40211 -2.973811,3.40893 -3.157988,4.39652 -3.186801,4.41716 -8.858303,6.3497 -3.779335,1.28779 -4.888151,1.50275 -10.184131,1.9743 -2.328336,0.20732 -4.650056,0.52088 -5.159376,0.69681 -1.19652,0.41329 -3.22437,1.93067 -4.89479,3.66264 -1.80136,1.86775 -2.89637,2.37687 -5.7463,2.67171 -2.3309,0.24116 -2.42115,0.27654 -3.87633,1.51933 -0.81944,0.69984 -1.90659,1.55556 -2.41591,1.9016 -0.50933,0.34605 -1.61325,1.25735 -2.45314,2.02511 -1.02722,0.93901 -1.89328,1.484 -2.64583,1.66494 -0.61532,0.14795 -2.01171,0.56973 -3.10312,0.93729 -1.0914,0.36756 -2.5097,0.66712 -3.15174,0.6657 -1.39975,-0.003 -1.92005,0.28525 -8.31795,4.61009 -6.79531,4.59348 -6.0942,4.20826 -6.6139,3.634 z"
           style="fill:#04050d;stroke-width:0.26458335" />
      </g>
    </g>
  </g>
</svg>
